<svg width="62" height="60" viewBox="0 0 62 60" fill="none" xmlns="http://www.w3.org/2000/svg">
<path d="M21.4182 59.1818L16.0636 50.1636L5.91818 47.9091L6.90455 37.4818L0 29.5909L6.90455 21.7L5.91818 11.2727L16.0636 9.01818L21.4182 0L31 4.08636L40.5818 0L45.9364 9.01818L56.0818 11.2727L55.0955 21.7L62 29.5909L55.0955 37.4818L56.0818 47.9091L45.9364 50.1636L40.5818 59.1818L31 55.0955L21.4182 59.1818ZM23.8136 51.9955L31 48.8955L38.3273 51.9955L42.2727 45.2318L50.0227 43.4L49.3182 35.5091L54.5318 29.5909L49.3182 23.5318L50.0227 15.6409L42.2727 13.95L38.1864 7.18636L31 10.2864L23.6727 7.18636L19.7273 13.95L11.9773 15.6409L12.6818 23.5318L7.46818 29.5909L12.6818 35.5091L11.9773 43.5409L19.7273 45.2318L23.8136 51.9955ZM28.0409 39.5955L43.9636 23.6727L40.0182 19.5864L28.0409 31.5636L21.9818 25.6455L18.0364 29.5909L28.0409 39.5955Z" fill="#5C402B"/>
</svg>
