<svg width="57" height="57" viewBox="0 0 57 57" fill="none" xmlns="http://www.w3.org/2000/svg">
<g clip-path="url(#clip0_605_87)">
<path d="M51.805 48.0294C56.3176 48.0294 51.8783 43.4507 51.8783 43.4507L40.3735 30.807C39.2545 29.5777 37.0952 27.7112 35.8328 28.7409C34.5704 29.7703 32.8846 31.8566 31.7104 33.0336L29.3312 35.4149C28.0558 36.5438 27.0745 35.4149 27.0745 35.4149L24.6401 33.0167C23.456 31.8496 21.7602 29.8135 20.4958 28.8663C19.2315 27.9191 17.0811 29.7203 15.9653 30.9526L4.5278 43.5903C0.0132561 48.0296 4.45456 48.0296 4.45456 48.0296H51.805V48.0294ZM49.8522 37.6273C50.9711 38.8575 52.6057 40.9969 53.7105 42.2393C54.9578 43.6412 56.3838 44.7058 56.3838 42.2503L56.3295 17.584C56.3255 15.9212 56.3716 12.7503 55.2357 13.3193C54.8132 13.5311 54.2352 13.9715 53.4505 14.7572L44.1403 22.3746C42.8538 23.4273 41.0406 24.7156 40.4475 25.5737C40.0731 26.1146 39.9016 26.7437 40.4434 27.2876L49.8522 37.6273ZM24.7575 28.8641C26.0428 29.9187 27.4398 31.4149 28.1532 31.4169C28.8667 31.4178 30.2897 29.9559 31.5811 28.9082L51.839 12.4754C53.1304 11.4288 55.3551 9.32057 54.2494 8.75547C53.4507 8.347 52.0548 8.35401 52.0548 8.35401H4.45031C0.164539 8.35401 2.34396 10.4703 2.34396 10.4703L24.7575 28.8641ZM2.67604 42.2393C3.78282 40.998 5.41853 38.8575 6.53637 37.6273L15.9398 27.2865C16.4846 26.7426 16.3141 26.1135 15.9398 25.5726C15.3468 24.7147 13.5325 23.4271 12.245 22.3746L5.26282 16.6628C3.97635 15.6101 2.28455 13.8882 1.14955 13.3193C0.0145493 12.7503 0.0638084 15.9223 0.0597496 17.584L-0.000396729 42.2503C-0.00113297 44.7058 1.42685 43.6412 2.67604 42.2393Z" fill="#5C402B"/>
</g>
<defs>
<clipPath id="clip0_605_87">
<rect width="56.384" height="56.384" fill="white" transform="matrix(-1 0 0 1 56.3838 0)"/>
</clipPath>
</defs>
</svg>
