<svg width="42" height="42" viewBox="0 0 42 42" fill="none" xmlns="http://www.w3.org/2000/svg">
<g clip-path="url(#clip0_648_821)">
<path d="M41.9525 21.065C41.9872 32.4392 32.9612 41.4564 22.0969 41.8939C9.8068 42.3885 0.7535 32.7758 0.3427 22.0335C-0.127612 9.73794 9.51007 0.729875 20.2148 0.303125C32.5231 -0.187308 42.0087 9.71314 41.9525 21.065ZM17.7004 21.0212V33.856H23.0574V21.0071H26.6546C26.8083 19.4829 26.9579 18.0017 27.1125 16.4742H23.0458C23.0458 15.4999 23.0202 14.5662 23.0541 13.6349C23.0789 12.9609 23.4996 12.5929 24.1798 12.5829C24.9915 12.5714 25.8032 12.5796 26.6149 12.5796C26.7587 12.5796 26.9034 12.5796 27.0298 12.5796V8.21703C25.3734 8.21703 23.7442 8.11448 22.1333 8.24018C19.4809 8.44694 17.9897 10.359 17.7699 12.7773C17.6715 13.8549 17.7161 14.9458 17.6955 16.0309C17.693 16.1748 17.6831 16.3187 17.6748 16.4957H15.2117V21.0212H17.7004Z" fill="#5C402B"/>
</g>
<defs>
<clipPath id="clip0_648_821">
<rect width="41.6263" height="41.6263" fill="white" transform="translate(0.326172 0.286133)"/>
</clipPath>
</defs>
</svg>
