<svg width="90" height="88" viewBox="0 0 90 88" fill="none" xmlns="http://www.w3.org/2000/svg">
<g filter="url(#filter0_d_963_21)">
<ellipse cx="44.9805" cy="40" rx="40.2281" ry="40" fill="#5C402B"/>
</g>
<path d="M44.7578 30.8906C39.7823 30.8906 35.7344 34.9385 35.7344 39.9141C35.7344 44.8896 39.7823 48.9375 44.7578 48.9375C49.7333 48.9375 53.7812 44.8896 53.7812 39.9141C53.7812 34.9385 49.7334 30.8906 44.7578 30.8906ZM50.8256 38.2475L43.9506 45.1225C43.6989 45.3741 43.369 45.5 43.0391 45.5C42.7091 45.5 42.3792 45.3741 42.1276 45.1224L38.6901 41.6849C38.1867 41.1816 38.1867 40.3653 38.6901 39.8619C39.1934 39.3586 40.0097 39.3586 40.5131 39.8619L43.0391 42.3879L49.0026 36.4244C49.5059 35.9211 50.3222 35.9211 50.8256 36.4244C51.329 36.9278 51.329 37.7441 50.8256 38.2475Z" fill="white"/>
<path d="M60.2266 24.875C55.0291 24.875 50.1427 22.851 46.4676 19.1758L45.6694 18.3776C45.1661 17.8741 44.3498 17.8742 43.8464 18.3776L43.048 19.1758C39.3729 22.851 34.4866 24.875 29.2891 24.875C28.5772 24.875 28 25.4521 28 26.164V39.0222C28 49.3579 34.5657 58.5637 44.338 61.9297C44.474 61.9766 44.6158 62 44.7578 62C44.8998 62 45.0417 61.9766 45.1776 61.9297C54.9499 58.5637 61.5156 49.3579 61.5156 39.0222V26.164C61.5156 25.4521 60.9385 24.875 60.2266 24.875ZM44.7578 51.5156C38.3607 51.5156 33.1562 46.3111 33.1562 39.914C33.1562 33.5169 38.3607 28.3125 44.7578 28.3125C51.1549 28.3125 56.3594 33.5169 56.3594 39.914C56.3594 46.3111 51.155 51.5156 44.7578 51.5156Z" fill="white"/>
<defs>
<filter id="filter0_d_963_21" x="0.752441" y="0" width="88.4561" height="88" filterUnits="userSpaceOnUse" color-interpolation-filters="sRGB">
<feFlood flood-opacity="0" result="BackgroundImageFix"/>
<feColorMatrix in="SourceAlpha" type="matrix" values="0 0 0 0 0 0 0 0 0 0 0 0 0 0 0 0 0 0 127 0" result="hardAlpha"/>
<feOffset dy="4"/>
<feGaussianBlur stdDeviation="2"/>
<feComposite in2="hardAlpha" operator="out"/>
<feColorMatrix type="matrix" values="0 0 0 0 0 0 0 0 0 0 0 0 0 0 0 0 0 0 0.25 0"/>
<feBlend mode="normal" in2="BackgroundImageFix" result="effect1_dropShadow_963_21"/>
<feBlend mode="normal" in="SourceGraphic" in2="effect1_dropShadow_963_21" result="shape"/>
</filter>
</defs>
</svg>
