<svg width="90" height="88" viewBox="0 0 90 88" fill="none" xmlns="http://www.w3.org/2000/svg">
<g filter="url(#filter0_d_963_20)">
<ellipse cx="44.9805" cy="40" rx="40.2281" ry="40" fill="#5C402B"/>
</g>
<g clip-path="url(#clip0_963_20)">
<path d="M40.663 34.1442C41.589 32.6235 43.2029 31.7156 44.9804 31.7156C46.4043 31.7156 47.7213 32.2916 48.6887 33.3376C49.5538 34.2728 50.0303 35.4903 50.0303 36.7654C50.0303 39.55 47.7648 41.8154 44.9803 41.8154C42.1958 41.8154 39.9304 39.5499 39.9304 36.7654C39.9304 36.247 40.0083 35.7364 40.162 35.2477C40.2835 34.862 40.4521 34.4908 40.663 34.1442Z" fill="white"/>
<path d="M43.6971 45.0903H46.2631C49.0536 45.0903 51.6176 46.4936 53.1218 48.844C53.9621 50.1568 54.4062 51.6746 54.4062 53.2335V58.8584H35.5538V53.2335C35.5538 51.6747 35.998 50.1569 36.8383 48.844C38.3425 46.4936 40.9066 45.0903 43.6971 45.0903Z" fill="white"/>
<path d="M54.7424 35.8948C50.8286 34.2726 48.971 29.7847 50.5932 25.8709C52.2155 21.9572 56.7033 20.0995 60.6171 21.7218C64.5309 23.3441 66.3885 27.8319 64.7662 31.7457C63.144 35.6595 58.6561 37.5171 54.7424 35.8948Z" fill="white"/>
<path d="M57.5831 53.2334C57.5831 51.0664 56.9657 48.9564 55.7976 47.1315C54.5233 45.1404 52.7014 43.6396 50.595 42.7699C51.9284 41.5223 52.8462 39.8374 53.1198 37.9464C54.324 38.9895 55.7638 39.6566 57.6863 39.6566C60.1285 39.6566 62.3844 38.845 64.1993 37.4778C66.5357 38.4705 68.5561 40.1515 69.9761 42.3703C71.3001 44.4391 72 46.8309 72 49.2872V55.5391H57.5831V53.2334Z" fill="white"/>
<path d="M26.8973 34.2357C23.9027 31.2411 23.9027 26.3859 26.8973 23.3912C29.8919 20.3966 34.7472 20.3966 37.7418 23.3912C40.7364 26.3859 40.7364 31.2411 37.7418 34.2357C34.7472 37.2304 29.8919 37.2304 26.8973 34.2357Z" fill="white"/>
<path d="M20.024 42.3704C21.444 40.1516 23.4642 38.4706 25.8007 37.4778C27.6156 38.8451 29.8716 39.6567 32.3136 39.6567C34.2265 39.6567 35.6458 38.9378 36.8273 37.8434C37.0819 39.7762 38.0082 41.4998 39.3657 42.77C37.2594 43.6396 35.4374 45.1405 34.1632 47.1316C32.9951 48.9567 32.3777 51.0667 32.3777 53.2335V55.5391H18V49.2872C18 46.831 18.6999 44.4392 20.024 42.3704Z" fill="white"/>
</g>
<defs>
<filter id="filter0_d_963_20" x="0.752441" y="0" width="88.4561" height="88" filterUnits="userSpaceOnUse" color-interpolation-filters="sRGB">
<feFlood flood-opacity="0" result="BackgroundImageFix"/>
<feColorMatrix in="SourceAlpha" type="matrix" values="0 0 0 0 0 0 0 0 0 0 0 0 0 0 0 0 0 0 127 0" result="hardAlpha"/>
<feOffset dy="4"/>
<feGaussianBlur stdDeviation="2"/>
<feComposite in2="hardAlpha" operator="out"/>
<feColorMatrix type="matrix" values="0 0 0 0 0 0 0 0 0 0 0 0 0 0 0 0 0 0 0.25 0"/>
<feBlend mode="normal" in2="BackgroundImageFix" result="effect1_dropShadow_963_20"/>
<feBlend mode="normal" in="SourceGraphic" in2="effect1_dropShadow_963_20" result="shape"/>
</filter>
<clipPath id="clip0_963_20">
<rect width="54" height="41" fill="white" transform="matrix(-1 0 0 1 72 18)"/>
</clipPath>
</defs>
</svg>
