<svg width="41" height="41" viewBox="0 0 41 41" fill="none" xmlns="http://www.w3.org/2000/svg">
<path d="M40.4124 10.8706V30.5665C40.3885 30.7072 40.3555 30.8478 40.3376 30.9885C40.167 32.464 39.754 33.8706 38.9968 35.1486C36.7671 38.9136 33.4391 40.8499 29.0575 40.8769C23.1557 40.9128 17.2508 40.8918 11.3489 40.8769C10.6037 40.8769 9.84048 40.838 9.11621 40.6793C4.52518 39.6767 1.58621 36.8994 0.329213 32.3772C0.167599 31.7876 0.107742 31.1711 0 30.5665C0 24.0002 0 17.4369 0 10.8706C0.0658426 10.4576 0.107742 10.0416 0.200521 9.63456C1.23006 5.06448 4.00144 2.13449 8.52662 0.880483C9.11621 0.718869 9.73573 0.659012 10.3403 0.55127C16.9186 0.55127 23.4968 0.55127 30.0721 0.55127C30.4851 0.617112 30.9041 0.659012 31.3112 0.75179C35.8902 1.77834 38.8262 4.54672 40.0832 9.06292C40.2478 9.65251 40.3077 10.269 40.4154 10.8736L40.4124 10.8706ZM20.2047 37.3094C23.1257 37.3094 26.0438 37.3094 28.9648 37.3094C29.8896 37.3094 30.8024 37.2166 31.6793 36.9024C34.8936 35.7591 36.824 32.9997 36.827 29.51C36.833 23.656 36.8449 17.802 36.812 11.945C36.806 11.0532 36.6863 10.1224 36.405 9.2814C35.3186 6.05511 32.5173 4.13371 29.0246 4.12772C23.1467 4.11874 17.2657 4.10976 11.3878 4.14268C10.5079 4.14867 9.58908 4.26838 8.75707 4.54672C5.53976 5.62115 3.59441 8.40749 3.58842 11.8672C3.57346 17.7751 3.57645 23.68 3.58842 29.5879C3.59441 32.2156 4.6449 34.3405 6.7788 35.8998C8.15251 36.9024 9.72077 37.3124 11.4087 37.3094C14.3417 37.3034 17.2747 37.3094 20.2077 37.3094H20.2047Z" fill="#5C402B"/>
<path d="M30.6232 20.7125C30.6292 26.4199 25.9185 31.1186 20.2022 31.1097C14.4738 31.1007 9.77209 26.3989 9.79304 20.7005C9.81399 14.9932 14.4768 10.3393 20.1932 10.3213C25.9035 10.3034 30.6173 14.9992 30.6203 20.7125H30.6232ZM20.2141 27.5242C23.9791 27.5152 27.0378 24.4595 27.0288 20.7095C27.0199 16.9505 23.9582 13.8978 20.2022 13.9068C16.4342 13.9157 13.3785 16.9714 13.3874 20.7215C13.3964 24.4805 16.4581 27.5332 20.2141 27.5242Z" fill="#5C402B"/>
<path d="M31.0405 7.3038C32.489 7.29183 33.6892 8.477 33.6892 9.91955C33.6892 11.3412 32.507 12.5233 31.0764 12.5323C29.6309 12.5413 28.4277 11.3501 28.4277 9.91356C28.4277 8.48598 29.6009 7.31577 31.0405 7.3038Z" fill="#5C402B"/>
</svg>
