<svg width="41" height="40" viewBox="0 0 41 40" fill="none" xmlns="http://www.w3.org/2000/svg">
<g clip-path="url(#clip0_648_823)">
<path d="M0.921875 36.7073V4.04166C1.68668 1.61092 3.39933 0.793969 5.86816 0.809293C15.8134 0.873462 25.7597 0.834194 35.705 0.837067C38.4191 0.837067 40.0225 2.44032 40.0235 5.1536C40.0264 15.2961 40.0264 25.4385 40.0197 35.581C40.0197 36.01 39.9909 36.4487 39.8989 36.8653C39.5318 38.5375 38.3463 39.4033 36.8167 39.9128H4.12963C2.47831 39.4263 1.40874 38.3575 0.921875 36.7073ZM22.435 16.4588C22.1063 16.4588 21.8341 16.4588 21.5629 16.4588C20.1885 16.4588 18.8123 16.4932 17.4389 16.4444C16.7527 16.4195 16.5322 16.6015 16.537 17.3226C16.5696 22.1563 16.5514 26.9891 16.5572 31.8228C16.5581 32.5296 16.3367 33.5372 16.7019 33.8628C17.1264 34.2411 18.0848 34.0428 18.8123 34.0543C20.0007 34.0735 21.1891 34.0591 22.4408 34.0591C22.4408 33.676 22.4408 33.4002 22.4408 33.1253C22.4408 30.0979 22.4273 27.0705 22.4532 24.0431C22.458 23.523 22.5395 22.9656 22.7426 22.4944C23.2841 21.2417 24.6403 20.5789 25.9418 20.8385C27.2375 21.0971 28.2573 22.2962 28.2678 23.6849C28.2927 26.8387 28.2783 29.9935 28.2793 33.1483C28.2793 33.4203 28.2793 33.6923 28.2793 34.0591C30.06 34.0591 31.7592 34.0352 33.4575 34.0725C34.0479 34.085 34.1811 33.8791 34.1773 33.3255C34.1543 29.9935 34.1706 26.6606 34.1639 23.3277C34.161 21.9332 33.8821 20.6077 33.1345 19.4009C31.2752 16.4013 26.9452 14.7013 23.5314 17.586C23.1758 17.8867 22.8577 18.2325 22.4331 18.6434V16.4578L22.435 16.4588ZM12.6268 16.4588C10.9103 16.4588 9.23884 16.4875 7.56835 16.4444C6.9224 16.4271 6.76234 16.6398 6.76522 17.2623C6.78822 22.3939 6.77864 27.5254 6.77864 32.657C6.77864 33.5924 7.24857 34.0601 8.18844 34.0601C9.65574 34.0601 11.123 34.0601 12.6268 34.0601V16.4588ZM6.22372 9.65976C6.24193 11.604 7.80125 13.1507 9.73241 13.1402C11.655 13.1296 13.2277 11.5561 13.2344 9.63582C13.2411 7.67533 11.6454 6.10846 9.67012 6.13432C7.71595 6.16018 6.20551 7.70502 6.22372 9.65976Z" fill="#5C402B"/>
</g>
<defs>
<clipPath id="clip0_648_823">
<rect width="39.1035" height="39.1035" fill="white" transform="translate(0.921875 0.810547)"/>
</clipPath>
</defs>
</svg>
