<svg width="42" height="42" viewBox="0 0 42 42" fill="none" xmlns="http://www.w3.org/2000/svg">
<path d="M39.4012 10.5322C37.0043 10.5322 34.7927 9.73816 33.0168 8.39859C30.9799 6.86297 29.5165 4.61039 28.9997 2.0141C28.8717 1.37262 28.8028 0.710625 28.7962 0.0322266H21.9491V18.7419L21.9409 28.9901C21.9409 31.7299 20.1567 34.053 17.6835 34.8701C16.9657 35.1071 16.1905 35.2195 15.3833 35.1752C14.353 35.1186 13.3875 34.8077 12.5483 34.3057C10.7625 33.2377 9.55171 31.3001 9.5189 29.0836C9.46722 25.6194 12.2678 22.7951 15.7295 22.7951C16.4128 22.7951 17.0691 22.9066 17.6835 23.1093V17.9954V16.1571C17.0354 16.0611 16.3759 16.0111 15.709 16.0111C11.92 16.0111 8.3762 17.5861 5.84308 20.4236C3.92847 22.5679 2.78003 25.3036 2.60284 28.1722C2.3707 31.9407 3.74964 35.523 6.42386 38.1661C6.81679 38.5541 7.22941 38.9142 7.66089 39.2464C9.95366 41.0109 12.7567 41.9674 15.709 41.9674C16.3759 41.9674 17.0354 41.9182 17.6835 41.8222C20.4414 41.4137 22.986 40.1512 24.9941 38.1661C27.4616 35.7273 28.825 32.4895 28.8397 29.0434L28.8044 13.7396C29.9816 14.6477 31.2687 15.3991 32.6501 15.9824C34.7985 16.8888 37.0765 17.3482 39.4209 17.3474V12.3755V10.5306C39.4226 10.5322 39.4029 10.5322 39.4012 10.5322Z" fill="#5C402B"/>
</svg>
