<svg width="40" height="41" viewBox="0 0 40 41" fill="none" xmlns="http://www.w3.org/2000/svg">
<g clip-path="url(#clip0_648_825)">
<path d="M20.0624 0.183105H20.0524C9.05733 0.183105 0.116211 9.12671 0.116211 20.1243C0.116211 24.4864 1.52206 28.5295 3.91251 31.8123L1.42734 39.2204L9.09222 36.7701C12.2454 38.859 16.0068 40.0654 20.0624 40.0654C31.0574 40.0654 39.9985 31.1193 39.9985 20.1243C39.9985 9.12921 31.0574 0.183105 20.0624 0.183105ZM31.6656 28.3425C31.1845 29.701 29.2752 30.8277 27.7522 31.1567C26.7102 31.3785 25.3492 31.5555 20.7678 29.6561C14.9076 27.2283 11.1337 21.2734 10.8396 20.887C10.5579 20.5006 8.47155 17.7338 8.47155 14.8723C8.47155 12.0107 9.92477 10.6173 10.5105 10.0191C10.9916 9.52803 11.7868 9.30369 12.5495 9.30369C12.7963 9.30369 13.0181 9.31615 13.2175 9.32613C13.8033 9.35105 14.0975 9.38595 14.4838 10.3107C14.9649 11.4698 16.1364 14.3314 16.276 14.6255C16.4181 14.9196 16.5602 15.3184 16.3608 15.7048C16.1738 16.1036 16.0093 16.2806 15.7152 16.6196C15.421 16.9586 15.1419 17.2178 14.8477 17.5818C14.5785 17.8983 14.2744 18.2373 14.6134 18.8231C14.9524 19.3964 16.124 21.3083 17.8489 22.8437C20.0748 24.8254 21.8795 25.4585 22.5251 25.7277C23.0062 25.9271 23.5795 25.8798 23.9309 25.5059C24.3771 25.0248 24.928 24.2272 25.4888 23.442C25.8877 22.8786 26.3912 22.8088 26.9196 23.0082C27.458 23.1952 30.3071 24.6035 30.8929 24.8952C31.4787 25.1893 31.865 25.3289 32.0071 25.5757C32.1467 25.8224 32.1467 26.9815 31.6656 28.3425Z" fill="#5C402B"/>
</g>
<defs>
<clipPath id="clip0_648_825">
<rect width="39.8823" height="39.8823" fill="white" transform="translate(0.118164 0.185059)"/>
</clipPath>
</defs>
</svg>
